HIERARCHY
ROOT hip
{
  OFFSET 115.517 83.7831 -12.1774
  CHANNELS 6 Xposition Yposition Zposition Zrotation Xrotation Yrotation
  JOINT abdomen
  {
    OFFSET 0 20.6881 -0.73152
    CHANNELS 3 Zrotation Xrotation Yrotation
    JOINT chest
    {
      OFFSET 0 11.7043 -0.48768
      CHANNELS 3 Zrotation Xrotation Yrotation
      JOINT neck
      {
        OFFSET 0 22.1894 -2.19456
        CHANNELS 3 Zrotation Xrotation Yrotation
        JOINT head
        {
          OFFSET -0.24384 7.07133 1.2192
          CHANNELS 3 Zrotation Xrotation Yrotation
          JOINT leftEye
          {
            OFFSET 4.14528 8.04674 8.04672
            CHANNELS 3 Zrotation Xrotation Yrotation
            End Site
            {
              OFFSET 1 0 0
            }
          }
          JOINT rightEye
          {
            OFFSET -3.6576 8.04674 8.04672
            CHANNELS 3 Zrotation Xrotation Yrotation
            End Site
            {
              OFFSET 1 0 0
            }
          }
        }
      }
      JOINT rCollar
      {
        OFFSET -2.68224 19.2634 -4.8768
        CHANNELS 3 Zrotation Xrotation Yrotation
        JOINT rShldr
        {
          OFFSET -8.77824 -1.95073 1.46304
          CHANNELS 3 Zrotation Xrotation Yrotation
          JOINT rForeArm
          {
            OFFSET -28.1742 -1.7115 0.48768
            CHANNELS 3 Zrotation Xrotation Yrotation
            JOINT rHand
            {
              OFFSET -22.5879 0.773209 7.07136
              CHANNELS 3 Zrotation Xrotation Yrotation
              JOINT rThumb1
              {
                OFFSET -1.2192 -0.487915 3.41376
                CHANNELS 3 Zrotation Xrotation Yrotation
                JOINT rThumb2
                {
                  OFFSET -3.37035 -0.52449 3.41376
                  CHANNELS 3 Zrotation Xrotation Yrotation
                  End Site
                  {
                    OFFSET -1.78271 -1.18214 1.43049
                  }
                }
              }
              JOINT rIndex1
              {
                OFFSET -7.75947 0.938293 5.60832
                CHANNELS 3 Zrotation Xrotation Yrotation
                JOINT rIndex2
                {
                  OFFSET -2.54057 -0.884171 1.56538
                  CHANNELS 3 Zrotation Xrotation Yrotation
                  End Site
                  {
                    OFFSET -1.62519 -0.234802 1.16502
                  }
                }
              }
              JOINT rMid1
              {
                OFFSET -8.24714 1.18213 3.41376
                CHANNELS 3 Zrotation Xrotation Yrotation
                JOINT rMid2
                {
                  OFFSET -3.10165 -0.590103 1.0647
                  CHANNELS 3 Zrotation Xrotation Yrotation
                  End Site
                  {
                    OFFSET -2.48547 -0.328903 0.83742
                  }
                }
              }
              JOINT rRing1
              {
                OFFSET -8.82822 0.546677 1.51678
                CHANNELS 3 Zrotation Xrotation Yrotation
                JOINT rRing2
                {
                  OFFSET -2.60934 -0.819778 -0.0198488
                  CHANNELS 3 Zrotation Xrotation Yrotation
                  End Site
                  {
                    OFFSET -2.33842 -0.294052 0.168128
                  }
                }
              }
              JOINT rPinky1
              {
                OFFSET -8.27202 -0.0477905 -0.4584
                CHANNELS 3 Zrotation Xrotation Yrotation
                JOINT rPinky2
                {
                  OFFSET -1.82734 -0.647385 -0.700984
                  CHANNELS 3 Zrotation Xrotation Yrotation
                  End Site
                  {
                    OFFSET -1.69225 -0.51767 -0.607171
                  }
                }
              }
            }
          }
        }
      }
      JOINT lCollar
      {
        OFFSET 2.68224 19.2634 -4.8768
        CHANNELS 3 Zrotation Xrotation Yrotation
        JOINT lShldr
        {
          OFFSET 8.77824 -1.95073 1.46304
          CHANNELS 3 Zrotation Xrotation Yrotation
          JOINT lForeArm
          {
            OFFSET 28.1742 -1.7115 0.48768
            CHANNELS 3 Zrotation Xrotation Yrotation
            JOINT lHand
            {
              OFFSET 22.5879 0.773209 7.07136
              CHANNELS 3 Zrotation Xrotation Yrotation
              JOINT lThumb1
              {
                OFFSET 1.2192 -0.487915 3.41376
                CHANNELS 3 Zrotation Xrotation Yrotation
                JOINT lThumb2
                {
                  OFFSET 3.37035 -0.52449 3.41376
                  CHANNELS 3 Zrotation Xrotation Yrotation
                  End Site
                  {
                    OFFSET 1.78271 -1.18214 1.43049
                  }
                }
              }
              JOINT lIndex1
              {
                OFFSET 7.75947 0.938293 5.60832
                CHANNELS 3 Zrotation Xrotation Yrotation
                JOINT lIndex2
                {
                  OFFSET 2.54057 -0.884171 1.56538
                  CHANNELS 3 Zrotation Xrotation Yrotation
                  End Site
                  {
                    OFFSET 1.62519 -0.234802 1.16502
                  }
                }
              }
              JOINT lMid1
              {
                OFFSET 8.24714 1.18213 3.41376
                CHANNELS 3 Zrotation Xrotation Yrotation
                JOINT lMid2
                {
                  OFFSET 3.10165 -0.590103 1.0647
                  CHANNELS 3 Zrotation Xrotation Yrotation
                  End Site
                  {
                    OFFSET 2.48547 -0.328903 0.83742
                  }
                }
              }
              JOINT lRing1
              {
                OFFSET 8.82822 0.546677 1.51678
                CHANNELS 3 Zrotation Xrotation Yrotation
                JOINT lRing2
                {
                  OFFSET 2.60934 -0.819778 -0.0198488
                  CHANNELS 3 Zrotation Xrotation Yrotation
                  End Site
                  {
                    OFFSET 2.33842 -0.294052 0.168128
                  }
                }
              }
              JOINT lPinky1
              {
                OFFSET 8.27202 -0.0477905 -0.4584
                CHANNELS 3 Zrotation Xrotation Yrotation
                JOINT lPinky2
                {
                  OFFSET 1.82734 -0.647385 -0.700984
                  CHANNELS 3 Zrotation Xrotation Yrotation
                  End Site
                  {
                    OFFSET 1.69225 -0.51767 -0.607171
                  }
                }
              }
            }
          }
        }
      }
    }
  }
  JOINT rButtock
  {
    OFFSET -8.77824 4.35084 1.2192
    CHANNELS 3 Zrotation Xrotation Yrotation
    JOINT rThigh
    {
      OFFSET 0 -1.70687 -2.19456
      CHANNELS 3 Zrotation Xrotation Yrotation
      JOINT rShin
      {
        OFFSET 0 -36.8199 0.73152
        CHANNELS 3 Zrotation Xrotation Yrotation
        JOINT rFoot
        {
          OFFSET 0.73152 -45.1104 -5.12064
          CHANNELS 3 Zrotation Xrotation Yrotation
          End Site
          {
            OFFSET -1.1221 -3.69964 12.103
          }
        }
      }
    }
  }
  JOINT lButtock
  {
    OFFSET 8.77824 4.35084 1.2192
    CHANNELS 3 Zrotation Xrotation Yrotation
    JOINT lThigh
    {
      OFFSET 0 -1.70687 -2.19456
      CHANNELS 3 Zrotation Xrotation Yrotation
      JOINT lShin
      {
        OFFSET 0 -36.8199 0.73152
        CHANNELS 3 Zrotation Xrotation Yrotation
        JOINT lFoot
        {
          OFFSET -0.73152 -45.1104 -5.12064
          CHANNELS 3 Zrotation Xrotation Yrotation
          End Site
          {
            OFFSET 1.1221 -3.69964 12.103
          }
        }
      }
    }
  }
}
MOTION
Frames:	8
Frame Time:	0.00833333
16.3404 84.7465 -0.366756 -8.34004 -4.27843 115.067 0.343406 -8.24813 -0.700416 1.90986 -1.78644 -0.164899 4.84724 18.2235 18.1285 -15.6613 -2.70286 32.5056 -0 0 0 -0 0 0 3.61992e-014 -2.02762e-013 -8.01605e-013 86.5146 14.5913 -20.1471 -18.6098 -11.3581 35.4023 -0.00282766 1.54899 0.217746 2.41267e-009 9.10606e-009 -2.05505e-009 4.17775e-009 1.57686e-008 -3.56648e-009 2.41267e-009 9.10606e-009 -2.05506e-009 7.73091 5.47488 0.417314 2.41267e-009 9.10606e-009 -2.05505e-009 2.90554 0.965183 0.102902 2.41267e-009 9.10606e-009 -2.05505e-009 10.2786 0.731801 0.0259123 2.41266e-009 9.10606e-009 -2.05504e-009 2.22167 -0.733487 -0.20892 3.61297e-014 -2.02758e-013 -8.01826e-013 -87.5152 12.7352 22.8501 21.0392 -14.3777 -41.2661 0.0795462 8.02269 -1.13501 2.23928e-009 2.99157e-011 -2.47169e-009 3.85748e-009 5.24322e-011 -4.30614e-009 2.23928e-009 2.99082e-011 -2.47168e-009 -7.73091 5.47488 -0.417314 2.23928e-009 2.991e-011 -2.47169e-009 -2.90554 0.965183 -0.102902 2.23928e-009 2.99101e-011 -2.47169e-009 -10.2786 0.731801 -0.0259123 2.23928e-009 2.99119e-011 -2.47169e-009 -2.22167 -0.733487 0.20892 -2.03217e-016 0 -3.88251e-019 2.49971 -25.7847 29.2111 0.0123565 24.5852 0.155472 -0.820578 -7.86768 -2.33008 2.03217e-016 0 3.88251e-019 -3.68293 -13.1387 -10.2215 0.120987 16.8333 -0.48803 10.997 -7.1729 38.3642 
16.3434 84.7421 -0.365737 -8.36817 -4.28819 115.05 0.344678 -8.33993 -0.783751 1.95608 -1.78794 -0.189349 4.84029 18.2307 18.1212 -15.7166 -2.6119 32.4881 -0 0 0 -0 0 0 9.81108e-015 1.06253e-013 -8.90334e-013 86.5215 14.8433 -20.2438 -18.6701 -11.426 35.5409 -0.00220785 1.36422 0.191763 2.77322e-009 9.68515e-009 -2.45801e-009 4.80123e-009 1.67751e-008 -4.26581e-009 2.77323e-009 9.68515e-009 -2.45803e-009 7.73091 5.47488 0.417314 2.77323e-009 9.68514e-009 -2.45801e-009 2.90554 0.965183 0.102902 2.77323e-009 9.68515e-009 -2.45802e-009 10.2786 0.731801 0.0259123 2.77322e-009 9.68515e-009 -2.458e-009 2.22167 -0.733487 -0.20892 9.7318e-015 1.06254e-013 -8.90574e-013 -87.6101 12.5546 23.0444 21.0788 -14.4321 -41.3674 0.0768474 7.88586 -1.1154 2.72612e-009 1.01949e-011 -2.44083e-009 4.69865e-009 1.79309e-011 -4.25504e-009 2.72612e-009 1.01918e-011 -2.44082e-009 -7.73091 5.47488 -0.417314 2.72612e-009 1.01939e-011 -2.44083e-009 -2.90554 0.965183 -0.102902 2.72611e-009 1.01946e-011 -2.44083e-009 -10.2786 0.731801 -0.0259123 2.72611e-009 1.01942e-011 -2.44083e-009 -2.22167 -0.733487 0.20892 -2.03217e-016 0 -3.88251e-019 2.49557 -25.8062 29.1941 0.011499 24.5888 0.155421 -0.822452 -7.85226 -2.33487 2.03217e-016 0 3.88251e-019 -3.67761 -13.1654 -10.2108 0.120637 16.8376 -0.490539 11.005 -7.21228 38.3077 
16.323 84.7411 -0.371652 -8.37814 -4.29016 115.032 0.336787 -8.39674 -0.84761 2.01114 -1.8006 -0.20718 4.82683 18.307 18.0693 -15.7863 -2.664 32.373 -0 0 0 -0 0 0 8.13506e-016 2.6339e-013 -8.77734e-013 86.5097 15.0358 -20.3202 -18.7158 -11.4776 35.6466 -0.00188831 1.2407 0.174397 2.74947e-009 9.48806e-009 -2.60286e-009 4.75977e-009 1.6436e-008 -4.51687e-009 2.74948e-009 9.48806e-009 -2.60287e-009 7.73091 5.47488 0.417314 2.74947e-009 9.48805e-009 -2.60285e-009 2.90554 0.965183 0.102902 2.74947e-009 9.48806e-009 -2.60287e-009 10.2786 0.731801 0.0259123 2.74946e-009 9.48806e-009 -2.60285e-009 2.22167 -0.733487 -0.20892 7.27128e-016 2.6339e-013 -8.77982e-013 -87.7021 12.3865 23.2286 21.1134 -14.4799 -41.4565 0.0749945 7.78917 -1.10156 2.84217e-009 4.92355e-012 -2.30322e-009 4.89976e-009 8.64475e-012 -4.0161e-009 2.84217e-009 4.9235e-012 -2.30322e-009 -7.73091 5.47488 -0.417314 2.84217e-009 4.92588e-012 -2.30322e-009 -2.90554 0.965183 -0.102902 2.84216e-009 4.92708e-012 -2.30322e-009 -10.2786 0.731801 -0.0259123 2.84216e-009 4.92549e-012 -2.30323e-009 -2.22167 -0.733487 0.20892 -2.03217e-016 0 -3.88251e-019 2.4915 -25.8096 29.1687 0.0119179 24.598 0.155398 -0.823482 -7.84079 -2.33493 2.03217e-016 0 3.88251e-019 -3.67196 -13.1702 -10.2015 0.120532 16.8408 -0.490723 10.9891 -7.21239 38.2661 
16.3058 84.7387 -0.381252 -8.36004 -4.28118 115.02 0.314105 -8.39845 -0.876525 2.08228 -1.83146 -0.213342 4.81375 18.5223 17.9503 -15.9106 -2.98041 32.1055 -0 0 0 -0 0 0 2.23727e-014 1.84048e-013 -6.91671e-013 86.4657 15.1435 -20.3604 -18.7368 -11.5012 35.6953 -0.0018358 1.21211 0.170378 2.05715e-009 7.97076e-009 -2.3615e-009 3.56151e-009 1.38085e-008 -4.09704e-009 2.05716e-009 7.97076e-009 -2.36151e-009 7.73091 5.47488 0.417314 2.05715e-009 7.97076e-009 -2.36149e-009 2.90554 0.965183 0.102902 2.05715e-009 7.97076e-009 -2.3615e-009 10.2786 0.731801 0.0259123 2.05714e-009 7.97077e-009 -2.36149e-009 2.22167 -0.733487 -0.20892 2.22843e-014 1.84048e-013 -6.91913e-013 -87.7923 12.2356 23.4021 21.1429 -14.5208 -41.5323 0.074348 7.75483 -1.09664 2.35383e-009 2.93675e-011 -1.97669e-009 4.05759e-009 5.11621e-011 -3.44475e-009 2.35383e-009 2.93685e-011 -1.97668e-009 -7.73091 5.47488 -0.417314 2.35383e-009 2.93717e-011 -1.97669e-009 -2.90554 0.965183 -0.102902 2.35382e-009 2.9373e-011 -1.97669e-009 -10.2786 0.731801 -0.0259123 2.35383e-009 2.93717e-011 -1.9767e-009 -2.22167 -0.733487 0.20892 -2.03217e-016 0 -3.88251e-019 2.48884 -25.7864 29.1316 0.0144876 24.6171 0.155369 -0.822352 -7.83253 -2.32199 2.03217e-016 0 3.88251e-019 -3.66662 -13.1389 -10.1953 0.120797 16.8403 -0.48711 10.9347 -7.14578 38.2559 
16.2994 84.734 -0.390337 -8.32246 -4.26534 115.014 0.280823 -8.36368 -0.885836 2.16826 -1.8801 -0.212686 4.80165 18.8376 17.7865 -16.0824 -3.47488 31.7372 -0 0 0 -0 0 0 6.56197e-014 -5.3386e-014 -3.67255e-013 86.4007 15.2094 -20.387 -18.7436 -11.5089 35.7113 -0.00191145 1.23763 0.173966 8.50093e-010 5.3692e-009 -1.82382e-009 1.47264e-009 9.30192e-009 -3.16246e-009 8.50101e-010 5.3692e-009 -1.82383e-009 7.73091 5.47488 0.417314 8.50093e-010 5.3692e-009 -1.82381e-009 2.90554 0.965183 0.102902 8.50097e-010 5.3692e-009 -1.82383e-009 10.2786 0.731801 0.0259123 8.50088e-010 5.36921e-009 -1.82382e-009 2.22167 -0.733487 -0.20892 6.55297e-014 -5.33865e-014 -3.67481e-013 -87.8872 12.091 23.5777 21.172 -14.5612 -41.6068 0.0742854 7.75147 -1.09616 1.39037e-009 7.43805e-011 -1.47347e-009 2.39532e-009 1.29554e-010 -2.56312e-009 1.39037e-009 7.43818e-011 -1.47346e-009 -7.73091 5.47488 -0.417314 1.39037e-009 7.43858e-011 -1.47347e-009 -2.90554 0.965183 -0.102902 1.39037e-009 7.43871e-011 -1.47347e-009 -10.2786 0.731801 -0.0259123 1.39037e-009 7.4387e-011 -1.47348e-009 -2.22167 -0.733487 0.20892 -2.03217e-016 0 -3.88251e-019 2.48585 -25.7456 29.084 0.0185185 24.6429 0.15529 -0.819175 -7.82494 -2.2966 2.03217e-016 0 3.88251e-019 -3.66257 -13.0822 -10.1923 0.12133 16.837 -0.481046 10.857 -7.03722 38.268 
16.2887 84.7294 -0.399149 -8.28124 -4.24678 114.999 0.246959 -8.3238 -0.898768 2.25371 -1.93102 -0.212935 4.77681 19.1254 17.612 -16.2243 -3.94383 31.3548 -0 0 0 -0 0 0 1.07582e-013 -3.17352e-013 -4.04527e-014 86.3349 15.2587 -20.4179 -18.7519 -11.5184 35.7302 -0.00200233 1.27214 0.178817 -3.47515e-010 2.73049e-009 -1.21063e-009 -5.99821e-010 4.73037e-009 -2.09695e-009 -3.47507e-010 2.73049e-009 -1.21064e-009 7.73091 5.47488 0.417314 -3.47516e-010 2.73048e-009 -1.21062e-009 2.90554 0.965183 0.102902 -3.47512e-010 2.73049e-009 -1.21064e-009 10.2786 0.731801 0.0259123 -3.4752e-010 2.73049e-009 -1.21063e-009 2.22167 -0.733487 -0.20892 1.07489e-013 -3.17352e-013 -4.06627e-014 -87.9802 11.95 23.7473 21.1977 -14.5971 -41.6732 0.0742987 7.7526 -1.09632 3.80442e-010 1.12474e-010 -9.69299e-010 6.52826e-010 1.95942e-010 -1.67992e-009 3.80446e-010 1.12475e-010 -9.6929e-010 -7.73091 5.47488 -0.417314 3.80443e-010 1.1248e-010 -9.69305e-010 -2.90554 0.965183 -0.102902 3.80441e-010 1.12481e-010 -9.69302e-010 -10.2786 0.731801 -0.0259123 3.80441e-010 1.12482e-010 -9.69311e-010 -2.22167 -0.733487 0.20892 -2.03217e-016 0 -3.88251e-019 2.48098 -25.6993 29.0326 0.0225601 24.668 0.155275 -0.816837 -7.82159 -2.27692 2.03217e-016 0 3.88251e-019 -3.65765 -13.0241 -10.1882 0.121923 16.8361 -0.474835 10.7774 -6.92981 38.2725 
16.2708 84.7254 -0.403592 -8.25217 -4.22963 114.959 0.222541 -8.31018 -0.938544 2.32326 -1.96876 -0.221812 4.72332 19.2575 17.461 -16.2514 -4.17903 31.0415 -0 0 0 -0 0 0 1.25289e-013 -4.76288e-013 1.52766e-013 86.2887 15.3164 -20.4712 -18.7772 -11.5474 35.788 -0.00198014 1.27051 0.178588 -1.01149e-009 1.10172e-009 -7.4271e-010 -1.74884e-009 1.90784e-009 -1.28428e-009 -1.01148e-009 1.10172e-009 -7.42717e-010 7.73091 5.47488 0.417314 -1.01149e-009 1.10172e-009 -7.42698e-010 2.90554 0.965183 0.102902 -1.01148e-009 1.10173e-009 -7.42714e-010 10.2786 0.731801 0.0259123 -1.01149e-009 1.10173e-009 -7.42707e-010 2.22167 -0.733487 -0.20892 1.25188e-013 -4.76289e-013 1.52567e-013 -88.0646 11.8098 23.9027 21.2175 -14.6246 -41.7242 0.0738841 7.73174 -1.09334 -2.473e-010 1.1616e-010 -6.39918e-010 -4.30051e-010 2.02452e-010 -1.10387e-009 -2.47296e-010 1.16161e-010 -6.39909e-010 -7.73091 5.47488 -0.417314 -2.47299e-010 1.16165e-010 -6.39924e-010 -2.90554 0.965183 -0.102902 -2.47299e-010 1.16166e-010 -6.39922e-010 -10.2786 0.731801 -0.0259123 -2.47299e-010 1.16168e-010 -6.39931e-010 -2.22167 -0.733487 0.20892 -2.03217e-016 0 -3.88251e-019 2.4726 -25.6597 28.9843 0.025162 24.6853 0.155435 -0.818215 -7.82607 -2.28113 2.03217e-016 0 3.88251e-019 -3.64969 -12.9889 -10.1791 0.122364 16.8427 -0.470779 10.7172 -6.86649 38.2392 
16.2541 84.7199 -0.402912 -8.24206 -4.21835 114.884 0.208519 -8.33486 -1.01373 2.37535 -2.00061 -0.242004 4.62065 19.171 17.3577 -16.0987 -4.05298 30.8509 -0 0 0 -0 0 0 1.12768e-013 -5.21895e-013 1.57016e-013 86.2755 15.4024 -20.5766 -18.8317 -11.6099 35.9129 -0.00174547 1.19949 0.168602 -9.63854e-010 8.71117e-010 -4.26321e-010 -1.66622e-009 1.50559e-009 -7.35432e-010 -9.63849e-010 8.71119e-010 -4.26328e-010 7.73091 5.47488 0.417314 -9.63856e-010 8.71112e-010 -4.26311e-010 2.90554 0.965183 0.102902 -9.6385e-010 8.71118e-010 -4.26324e-010 10.2786 0.731801 0.0259123 -9.63859e-010 8.7112e-010 -4.2632e-010 2.22167 -0.733487 -0.20892 1.12653e-013 -5.21896e-013 1.56822e-013 -88.1482 11.6781 24.0533 21.2308 -14.6431 -41.7586 0.072646 7.66796 -1.0842 -4.36581e-010 8.40741e-011 -5.61523e-010 -7.56459e-010 1.46676e-010 -9.6821e-010 -4.36579e-010 8.40729e-011 -5.61515e-010 -7.73091 5.47488 -0.417314 -4.3658e-010 8.40763e-011 -5.61529e-010 -2.90554 0.965183 -0.102902 -4.36581e-010 8.40765e-011 -5.61528e-010 -10.2786 0.731801 -0.0259123 -4.36579e-010 8.40788e-011 -5.61536e-010 -2.22167 -0.733487 0.20892 -2.03217e-016 0 -3.88251e-019 2.45754 -25.6337 28.9406 0.0259077 24.6899 0.15577 -0.825112 -7.84007 -2.32102 2.03217e-016 0 3.88251e-019 -3.63799 -12.9923 -10.1565 0.122599 16.8623 -0.469951 10.6864 -6.87109 38.1451 
